# xmcd
#
# Track frame offsets: 
#        182
#        11002
#        41317
#        54552
#        77362
#        93637
#        113325
#        124837
#        143692
#        157800
#        175427
#        192157
#        205217
#        223510
#        242587
#        257890
#        303950
#
# Disc length: 4378 seconds
#
# Revision: 7
# Processed by: cddbd v1.5.2PL0 Copyright (c) Steve Scherf et al.
# Submitted via: ExactAudioCopyFreeDBPlugin 1.0
#
DISCID=d9111811
DTITLE=Various Artist - Blues Masters Vol.7 - Blues Revival
DYEAR=1993
DGENRE=Blues
TTITLE0=Jimmy Reed - Baby What You Want Me To Do
TTITLE1=Ligthnin' Hopkins - Three Aces on the Bottom
TTITLE2=Mississippi John Hurt - Candy Man
TTITLE3=Dave "Snaker" Ray - Fannin Street
TTITLE4=Mississippi Fred McDowell - Write Me A Few Lines
TTITLE5=Son House - Death Letter
TTITLE6=John Lee Hooker - Boom Boom
TTITLE7=Muddy Waters - Got My Mojo Working
TTITLE8=Paul Butterfield Blues Band - Born In Chicago
TTITLE9=Junior Wells' Chicago Blues Band - Good Morning Schoolgirl
TTITLE10=Otis Spann - The Blues Never Die
TTITLE11=Slim Harpo - Baby Scratch My Back
TTITLE12=Sonny Boy Williamson - Coming Home to You Baby
TTITLE13=John Mayall and The Bluesbreakers - The Death of J. B. Lenoir
TTITLE14=Canned Heat - On The Road Again
TTITLE15=Albert King - Blues Power
TTITLE16=B.B. King - The Thrill is Gone
EXTD=
EXTT0=
EXTT1=
EXTT2=
EXTT3=
EXTT4=
EXTT5=
EXTT6=
EXTT7=
EXTT8=
EXTT9=
EXTT10=
EXTT11=
EXTT12=
EXTT13=
EXTT14=
EXTT15=
EXTT16=
PLAYORDER=
